inDegrees=yes
name=ik_S44_A03_T01
DataType=double
version=3
OpenSimVersion=4.3-2021-08-27-4bc7ad9
endheader
time	pelvis_tilt	pelvis_list	pelvis_rotation	pelvis_tx	pelvis_ty	pelvis_tz	hip_flexion_r	hip_adduction_r	hip_rotation_r	knee_angle_r	knee_angle_r_beta	ankle_angle_r	subtalar_angle_r	mtp_angle_r	hip_flexion_l	hip_adduction_l	hip_rotation_l	knee_angle_l	knee_angle_l_beta	ankle_angle_l	subtalar_angle_l	mtp_angle_l	lumbar_extension	lumbar_bending	lumbar_rotation	arm_flex_r	arm_add_r	arm_rot_r	elbow_flex_r	pro_sup_r	wrist_flex_r	wrist_dev_r	arm_flex_l	arm_add_l	arm_rot_l	elbow_flex_l	pro_sup_l	wrist_flex_l	wrist_dev_l
26.11999999999953	0.4205103550807442	-2.142400071811612	100.894338066389	0	0.9399999999999999	0	2.794627590792892	-0.2105155075091928	-1.59433106967165	4.92539469894491	0.08596435445686355	0	0	0	5.479840547681733	0.4556647933869913	-5.948875747111969	12.96053973410863	0.226204091195746	0	0	0	0	0	0	40.07659930340126	-40.07659930340113	4.893528603104059	83.49897061695886	85.10647166688332	0	0	40.07659930340126	-40.07659930340113	4.893528603104059	83.49897061695886	85.10647166686337	0	0
26.13999999999953	0.4828527393605863	-2.189466370790084	100.8434493574496	0	0.9399999999999999	0	2.840157009927793	-0.1950347245479325	-1.488246070745961	5.209768486345281	0.0909276133533664	0	0	0	5.408986874644746	0.5307515415285813	-6.359406337192407	12.98505189185704	0.226631909055224	0	0	0	0	0	0	40.07713483241486	-40.07713483241473	4.893551903368752	83.4992991845521	85.10644836661966	0	0	40.07713483241486	-40.07713483241473	4.893551903368752	83.4992991845521	85.10644836659971	0	0
26.15999999999953	0.6489749993478382	-2.301581441901166	100.9079176490041	0	0.9399999999999999	0	3.00063969526099	-0.1991564335851593	-1.538950912503083	5.495863615811158	0.09592091533646539	0	0	0	5.46677046426508	0.5668662389162712	-6.250554815651585	13.02827576662488	0.2273863079853925	0	0	0	0	0	0	40.07785297634266	-40.07785297634253	4.893583045869646	83.49973833801617	85.10641722412021	0	0	40.07785297634266	-40.07785297634253	4.893583045869646	83.49973833801617	85.10641722410023	0	0
26.17999999999953	0.7301004595622456	-2.432436316877509	100.9927615474759	0	0.9399999999999999	0	2.941900893440745	-0.3405123975842023	-2.311485443402746	5.560309449341499	0.09704570732076201	0	0	0	5.553662914649516	0.65875359167968	-6.224036377284457	13.04377612547927	0.2276568402826423	0	0	0	0	0	0	40.07823187368641	-40.07823187368628	4.89359949822731	83.49997033979596	85.10640077176326	0	0	40.07823187368641	-40.07823187368628	4.89359949822731	83.49997033979596	85.10640077174328	0	0
26.19999999999953	0.8301457746084413	-2.451598608654305	100.9587971844039	0	0.9399999999999999	0	3.053395746592689	-0.3003908338352684	-2.405497315007637	5.704567550197729	0.09956348615337728	0	0	0	5.401878504202815	0.6713392153613217	-6.416955797105725	13.02428493827572	0.2273166548908178	0	0	0	0	0	0	40.07871600890383	-40.0787160089037	4.893620351461336	83.50026439853454	85.10637991853015	0	0	40.07871600890383	-40.0787160089037	4.893620351461336	83.50026439853454	85.10637991851019	0	0
26.21999999999953	0.9328101590543878	-2.494560708877399	100.9335505922791	0	0.9399999999999999	0	2.999487491824432	-0.3709548024633783	-2.646787449813729	5.731821814562975	0.1000391628017598	0	0	0	5.357661390275602	0.6491029945948629	-6.705233353025633	13.01025866163334	0.2270718501816126	0	0	0	0	0	0	40.07884651784619	-40.07884651784607	4.893625812042397	83.50034139847139	85.10637445794937	0	0	40.07884651784619	-40.07884651784607	4.893625812042397	83.50034139847139	85.10637445792939	0	0
26.23999999999953	0.9696728635113404	-2.555364398288311	100.9029971343809	0	0.9399999999999999	0	2.923900892597615	-0.5622629788422232	-3.540218825169254	6.294276046735174	0.1098558410449413	0	0	0	5.239782544874135	0.7364409401459092	-6.870966142594695	12.89388808498957	0.2250408004667344	0	0	0	0	0	0	40.08014941172861	-40.08014941172848	4.893682519027308	83.50114104924876	85.10631775096694	0	0	40.08014941172861	-40.08014941172848	4.893682519027308	83.50114104924876	85.10631775094697	0	0
26.25999999999953	0.9798908214767438	-2.527763949397641	100.918135930643	0	0.9399999999999999	0	3.052916622965224	-0.5875633470685282	-3.66165480351879	7.318893156650877	0.1277387831852389	0	0	0	5.246446314269178	0.735411353629461	-6.872291608339579	13.15075857162236	0.2295240362096768	0	0	0	0	0	0	40.1038147467745	-40.10381474677438	4.894683812162627	83.51526020578781	85.10531645787613	0	0	40.1038147467745	-40.10381474677438	4.894683812162627	83.51526020578781	85.10531645785638	0	0
26.27999999999953	1.011617348970524	-2.572188223917853	101.0289082121175	0	0.9399999999999999	0	3.451402879315494	-0.4935353592827473	-3.658303983553904	8.759626398795231	0.1528843219035906	0	0	0	4.974466333541589	0.9773476568069173	-7.256968892167991	12.99632733400915	0.2268287026453965	0	0	0	0	0	0	40.10489572324506	-40.10489572324494	4.894730594198829	83.51591989540334	85.10526967584195	0	0	40.10489572324506	-40.10489572324494	4.894730594198829	83.51591989540334	85.1052696758222	0	0
26.29999999999953	1.014799358234207	-2.53727735354997	101.1391393574047	0	0.9399999999999999	0	3.858842192775758	-0.3456937786861118	-3.54895066924455	10.03632813908231	0.1751669708375417	0	0	0	4.865237233527679	1.041737936974508	-7.483258560195798	13.16542999809716	0.2297801009076262	0	0	0	0	0	0	40.10587434070194	-40.10587434070181	4.894772926382465	83.51651683580879	85.10522734366018	0	0	40.10587434070194	-40.10587434070181	4.894772926382465	83.51651683580879	85.10522734364042	0	0
26.31999999999953	0.9556892344339014	-2.284916111252833	101.2891539253262	0	0.9399999999999999	0	4.308144626668694	-0.2436932829163049	-3.318841264137682	11.65184328101044	0.2033630291800111	0	0	0	4.48424307711062	1.135659398946225	-7.450936211708858	13.24362218188322	0.2311448119640175	0	0	0	0	0	0	40.1070016772229	-40.10700167722277	4.894821664944263	83.51720411436567	85.10517860510049	0	0	40.1070016772229	-40.10700167722277	4.894821664944263	83.51720411436567	85.10517860508075	0	0
26.33999999999953	0.9041857880085277	-2.198072794636777	101.5136465692102	0	0.9399999999999999	0	4.944091459493154	0.08826868545241158	-3.075647807135681	12.82781465854088	0.2238876016271306	0	0	0	4.333491073048097	1.323288474205432	-7.473618760428715	13.32055637435973	0.2324875669300957	0	0	0	0	0	0	40.1080821180205	-40.10808211802037	4.894868409101176	83.51786326937743	85.10513186094566	0	0	40.1080821180205	-40.10808211802037	4.894868409101176	83.51786326937743	85.10513186092592	0	0
26.35999999999953	0.863648850902724	-2.047854576229834	101.7468552133019	0	0.9399999999999999	0	5.728074997554697	0.3910302058896668	-3.17347800314197	14.8214615064693	0.2586833032454882	0	0	0	4.096805029789676	1.525021688091426	-7.265364968390312	13.43726310006425	0.2345244835528614	0	0	0	0	0	0	40.10905888024647	-40.10905888024634	4.894910447251023	83.51845606117267	85.10508982279769	0	0	40.10905888024647	-40.10905888024634	4.894910447251023	83.51845606117267	85.10508982277796	0	0
26.37999999999953	0.8155554866101896	-1.901380634498311	101.9606732433095	0	0.9399999999999999	0	6.924435342477579	0.4902215184688716	-3.936337015894334	17.61506302544887	0.3074408477403964	0	0	0	3.731992546176758	1.737594445511342	-6.981469985499904	13.34806265891685	0.2329676421606079	0	0	0	0	0	0	40.11109657833897	-40.11109657833885	4.894998121368021	83.51969237776142	85.10500214868456	0	0	40.11109657833897	-40.11109657833885	4.894998121368021	83.51969237776142	85.10500214866491	0	0
26.39999999999953	0.7728666959232656	-1.752407921754584	102.0647836859167	0	0.9399999999999999	0	8.594861599604501	0.5646843216492844	-4.437994512999941	21.8767131662787	0.3818206742659571	0	0	0	3.23894690387048	1.84017334578899	-6.756925985794528	12.97873474950755	0.2265216541219082	0	0	0	0	0	0	40.11303605071942	-40.11303605071929	4.89508111256575	83.52086265429874	85.10491915749058	0	0	40.11303605071942	-40.11303605071929	4.89508111256575	83.52086265429874	85.10491915747093	0	0
26.41999999999953	0.6032750842914671	-1.708518738440453	101.943356135879	0	0.9399999999999999	0	8.573578354220501	0.3531434630347486	-3.99786903315009	24.59002604368149	0.4291769176133969	0	0	0	2.907978992028216	2.092005124783546	-6.773236290557623	12.57824634943887	0.2195318129246654	0	0	0	0	0	0	40.11417308436168	-40.11417308436155	4.89512959681313	83.52154633942395	85.10487067324539	0	0	40.11417308436168	-40.11417308436155	4.89512959681313	83.52154633942395	85.10487067322573	0	0
26.43999999999953	0.4898776062409165	-1.666069449102583	101.8486100488651	0	0.9399999999999999	0	10.45979516004804	-0.07220871411659659	-4.754854188864819	28.30402223419047	0.4939983795443052	0	0	0	2.404920283058805	2.200171059975799	-6.383522826775492	11.9549341304992	0.2086529624362564	0	0	0	0	0	0	40.11694716258625	-40.11694716258612	4.895249183331739	83.52323266228818	85.10475108673212	0	0	40.11694716258625	-40.11694716258612	4.895249183331739	83.52323266228818	85.10475108671247	0	0
26.45999999999952	-0.1369824283726007	-1.500993006215565	101.5550738142203	0	0.9399999999999999	0	10.18177659970563	-0.7016205159295607	-4.212534715803022	30.29605314077871	0.5287658776657576	0	0	0	1.692535299057601	2.871410966475551	-6.257678132547229	11.41392094976268	0.1992105011357171	0	0	0	0	0	0	40.11809297517106	-40.11809297517093	4.895298364943758	83.52392618384114	85.10470190512235	0	0	40.11809297517106	-40.11809297517093	4.895298364943758	83.52392618384114	85.10470190510271	0	0
26.47999999999952	-0.3565318025832082	-1.312563027467557	101.64908922944	0	0.9399999999999999	0	13.22892032983728	-0.1683834656329705	-7.740718577451172	34.58037775401674	0.603541448390994	0	0	0	1.113345132851865	3.058253301849307	-6.08494339037566	10.99155357723071	0.1918387998320366	0	0	0	0	0	0	40.13991899929696	-40.13991899929683	4.896104938981084	83.53529860628826	85.1038953311199	0	0	40.13991899929696	-40.13991899929683	4.896104938981084	83.53529860628826	85.10389533110046	0	0
26.49999999999952	-0.43385830990035	-1.208328472050491	101.866266261636	0	0.9399999999999999	0	16.06415230916506	0.800695816408391	-9.967039526422745	37.36756462172279	0.6521870361008121	0	0	0	0.7609422684457915	3.023392732055753	-6.168174582498938	10.80164056092803	0.1885241924051613	0	0	0	0	0	0	40.16763863576941	-40.16763863576929	4.897114679910176	83.54953544856899	85.10288559023434	0	0	40.16763863576941	-40.16763863576929	4.897114679910176	83.54953544856899	85.10288559021511	0	0
